<?xml version="1.0" encoding="UTF-8"?>
<svg width="1400" height="900" viewBox="0 0 1400 900" fill="none" xmlns="http://www.w3.org/2000/svg">
  <defs>
    <!-- Theme vars -->
    <linearGradient id="bodyGrad" x1="0" y1="0" x2="0" y2="1">
      <stop offset="0%" stop-color="#dff4ea"/>
      <stop offset="100%" stop-color="#bfe8d3"/>
    </linearGradient>
    <linearGradient id="baseGrad" x1="0" y1="0" x2="1" y2="0">
      <stop offset="0%" stop-color="#49c188"/>
      <stop offset="100%" stop-color="#2aa66d"/>
    </linearGradient>
    <filter id="softShadow" x="-20%" y="-20%" width="140%" height="160%">
      <feDropShadow dx="0" dy="18" stdDeviation="18" flood-color="#0f3f2b" flood-opacity="0.14"/>
      <feDropShadow dx="0" dy="2" stdDeviation="2" flood-color="#0f3f2b" flood-opacity="0.08"/>
    </filter>
    <filter id="innerShadow" x="-10%" y="-10%" width="120%" height="140%">
      <feOffset dy="1"/>
      <feGaussianBlur stdDeviation="1.5" result="blur"/>
      <feComposite in2="SourceAlpha" operator="arithmetic" k2="-1" k3="1" result="inv"/>
      <feColorMatrix type="matrix" values="0 0 0 0 0   0 0 0 0 0   0 0 0 0 0   0 0 0 .18 0"/>
      <feBlend in="SourceGraphic" in2="inv" mode="normal"/>
    </filter>
    <style><![CDATA[
      .stroke-soft { stroke: #dfeee6; }
      .text-title { font: 700 24px Inter, system-ui, -apple-system, Segoe UI, Roboto, Helvetica, Arial; fill: #0b0b0b; }
      .text-sub   { font: 600 16px Inter, system-ui, -apple-system, Segoe UI, Roboto, Helvetica, Arial; fill: #1e293b; }
      .text-mute  { font: 500 14px Inter, system-ui, -apple-system, Segoe UI, Roboto, Helvetica, Arial; fill: #6b7280; }
      .badge      { fill: #e7f6ee; stroke: #cfeada; }
    ]]></style>
  </defs>

  <!-- Background (transparent by default for hero use) -->
  <rect width="1400" height="900" fill="none"/>

  <!-- Laptop group -->
  <g filter="url(#softShadow)">
    <!-- Lid -->
    <rect x="200" y="120" rx="22" ry="22" width="1000" height="640" fill="url(#bodyGrad)" stroke="#a0d8bf"/>

    <!-- Bezel -->
    <rect x="230" y="150" rx="14" ry="14" width="940" height="580" fill="#eaf7f0" stroke="#d5ebdf"/>
    <!-- Notch / window bubbles -->
    <g transform="translate(250,170)">
      <circle cx="14" cy="12" r="6" fill="#d8efe5"/>
      <circle cx="34" cy="12" r="6" fill="#d8efe5"/>
      <circle cx="54" cy="12" r="6" fill="#d8efe5"/>
    </g>

    <!-- Screen area -->
    <rect x="250" y="196" width="900" height="520" rx="12" fill="#ffffff" stroke="#dbe7df" filter="url(#innerShadow)"/>

    <!-- UI mock inside the screen -->
    <!-- Sidebar -->
    <g transform="translate(250,196)">
      <rect x="0" y="0" width="210" height="520" rx="12" fill="#f6fbf8" stroke="#e6efe9"/>
      <text x="24" y="42" class="text-sub">Dashboard</text>

      <!-- Sidebar items -->
      <g transform="translate(18,70)">
        <rect x="0" y="0" width="174" height="38" rx="10" fill="#eaf7f0"/>
        <rect x="6" y="10" width="18" height="18" rx="5" fill="#2bb06f"/>
        <text x="34" y="24" class="text-mute" fill="#0b0b0b">Froge</text>
      </g>
      <g transform="translate(18,116)">
        <rect x="6" y="10" width="18" height="18" rx="5" fill="#2bb06f" opacity="0.7"/>
        <text x="34" y="24" class="text-mute">Century</text>
      </g>
      <g transform="translate(18,156)">
        <rect x="6" y="10" width="18" height="18" rx="5" fill="#2bb06f" opacity="0.5"/>
        <text x="34" y="24" class="text-mute">Linergy</text>
      </g>
      <text x="24" y="500" class="text-mute">Settings</text>
    </g>

    <!-- Main content -->
    <g transform="translate(250,196)">
      <g transform="translate(230,24)">
        <text x="6" y="0" class="text-sub">Today’s Review</text>
        <!-- Review card -->
        <g transform="translate(0,16)">
          <rect x="0" y="0" width="630" height="70" rx="12" fill="#ffffff" stroke="#e6e7eb"/>
          <rect x="16" y="26" width="14" height="14" rx="3" fill="#2bb06f"/>
          <text x="40" y="38" class="text-mute" fill="#0b0b0b">Continue AI Fundamentals</text>
          <rect x="40" y="46" width="300" height="6" rx="3" fill="#eaf6f0"/>
          <rect x="40" y="46" width="180" height="6" rx="3" fill="#29a86b"/>
          <g transform="translate(530,18)">
            <rect class="badge" x="0" y="0" width="84" height="32" rx="16"/>
            <text x="18" y="21" class="text-mute" fill="#137a48">Ongoing</text>
          </g>
        </g>

        <!-- Library title -->
        <text x="6" y="122" class="text-sub">Library</text>

        <!-- Library rows -->
        <g transform="translate(0,138)">
          <rect x="0" y="0" width="630" height="72" rx="12" fill="#ffffff" stroke="#e6e7eb"/>
          <rect x="16" y="26" width="18" height="18" rx="5" fill="#2bb06f" opacity="0.9"/>
          <text x="44" y="42" class="text-mute" fill="#0b0b0b">Biology Basics</text>
          <g transform="translate(470,20)">
            <rect class="badge" x="0" y="0" width="64" height="32" rx="16"/>
            <text x="16" y="21" class="text-mute">Due</text>
          </g>
          <g transform="translate(540,20)">
            <rect class="badge" x="0" y="0" width="64" height="32" rx="16"/>
            <text x="18" y="21" class="text-mute">Tag</text>
          </g>
        </g>

        <g transform="translate(0,218)">
          <rect x="0" y="0" width="630" height="72" rx="12" fill="#ffffff" stroke="#e6e7eb"/>
          <rect x="16" y="26" width="18" height="18" rx="5" fill="#2bb06f" opacity="0.7"/>
          <text x="44" y="42" class="text-mute" fill="#0b0b0b">History 101</text>
          <g transform="translate(470,20)">
            <rect class="badge" x="0" y="0" width="64" height="32" rx="16"/>
            <text x="16" y="21" class="text-mute">Due</text>
          </g>
          <g transform="translate(540,20)">
            <rect class="badge" x="0" y="0" width="64" height="32" rx="16"/>
            <text x="18" y="21" class="text-mute">Tag</text>
          </g>
        </g>

        <g transform="translate(0,298)">
          <rect x="0" y="0" width="630" height="72" rx="12" fill="#ffffff" stroke="#e6e7eb"/>
          <rect x="16" y="26" width="18" height="18" rx="5" fill="#2bb06f" opacity="0.5"/>
          <text x="44" y="42" class="text-mute" fill="#0b0b0b">Galileo / Timelines</text>
          <g transform="translate(470,20)">
            <rect class="badge" x="0" y="0" width="64" height="32" rx="16"/>
            <text x="16" y="21" class="text-mute">Due</text>
          </g>
          <g transform="translate(540,20)">
            <rect class="badge" x="0" y="0" width="64" height="32" rx="16"/>
            <text x="18" y="21" class="text-mute">Tag</text>
          </g>
        </g>

      </g>
    </g>

    <!-- Base -->
    <rect x="180" y="770" width="1040" height="26" rx="8" fill="url(#baseGrad)"/>
  </g>
</svg>
